#!OML:ASF E:\Style4\Style4.ASF
:FULLY-SPECIFIED
:DEGREES
2497
root 1.40356 16.9663 -0.808791 -0.137803 -26.2343 4.95661
lowerback 16.1732 1.39162 -4.43342
upperback 12.0546 1.07281 -0.060698
thorax 3.75586 0.169017 2.28487
lowerneck 8.61141 -1.6587 -7.04199
upperneck 0.57147 -2.86316 1.50808
head -1.16829 -1.46035 1.79007
rclavicle 6.95746e-015 -2.94201e-014
rhumerus 17.6148 16.6121 -82.2169
rradius 132.146
rwrist 22.1112
rhand 27.9605 -10.5622
rfingers 7.12502
rthumb 51.8643 -30.7481
lclavicle 6.95746e-015 -2.94201e-014
lhumerus 24.2665 -21.7029 81.7257
lradius 129.96
lwrist -15.9744
lhand 23.5232 42.9916
lfingers 7.12502
lthumb 47.802 65.2963
rfemur -32.157 7.6829 9.35556
rtibia 50.2377
rfoot -19.1668 -7.52498
rtoes -21.1265
lfemur -23.4079 21.4355 -29.0698
ltibia 48.7458
lfoot -31.7793 15.4126
ltoes -5.21028
2498
root 1.39688 16.9654 -0.811615 -0.132706 -26.1206 4.98459
lowerback 16.1909 1.37936 -4.57672
upperback 12.027 1.0395 -0.0218549
thorax 3.71804 0.143452 2.41044
lowerneck 8.63768 -1.64831 -7.17739
upperneck 0.596925 -2.86397 1.53303
head -1.16313 -1.46193 1.82259
rclavicle 4.47266e-014 -5.28767e-014
rhumerus 17.6263 16.5824 -82.1654
rradius 132.111
rwrist 22.1184
rhand 27.8693 -10.4508
rfingers 7.12502
rthumb 51.7816 -30.6853
lclavicle 4.47266e-014 -5.28767e-014
lhumerus 24.1524 -21.6589 81.7968
lradius 130.002
lwrist -16.0068
lhand 23.5883 43.0888
lfingers 7.12502
lthumb 47.862 65.3658
rfemur -32.1433 7.64442 9.34362
rtibia 50.2316
rfoot -19.1174 -7.65096
rtoes -21.1707
lfemur -23.4165 21.3564 -29.075
ltibia 48.7221
lfoot -31.6379 15.4291
ltoes -5.607
2499
root 1.39084 16.967 -0.813577 -0.116422 -26.0332 4.95359
lowerback 16.2158 1.38999 -4.62737
upperback 12.0067 1.04649 0.00298865
thorax 3.68192 0.144328 2.46395
lowerneck 8.62447 -1.66363 -7.17974
upperneck 0.639422 -2.88399 1.49012
head -1.14646 -1.47194 1.80859
rclavicle -2.76311e-014 1.15295e-014
rhumerus 17.5759 16.4838 -82.1423
rradius 132.101
rwrist 22.1425
rhand 27.7979 -10.3589
rfingers 7.12502
rthumb 51.7167 -30.6313
lclavicle -2.76311e-014 1.15295e-014
lhumerus 24.0531 -21.67 81.8548
lradius 130.042
lwrist -16.0642
lhand 23.6501 43.026
lfingers 7.12502
lthumb 47.919 65.2765
rfemur -32.1115 7.60332 9.40605
rtibia 50.2237
rfoot -19.0786 -7.82769
rtoes -20.9284
lfemur -23.4016 21.2805 -29.0198
ltibia 48.699
lfoot -31.6458 15.4177
ltoes -5.76055
2500
root 1.38463 16.9684 -0.814548 -0.1337 -25.9358 4.9776
lowerback 16.2091 1.4066 -4.63256
upperback 12.031 1.06927 -0.0370649
thorax 3.71106 0.156232 2.42172
lowerneck 8.50683 -1.6884 -7.15711
upperneck 0.689785 -2.90402 1.52655
head -1.10858 -1.48345 1.81389
rclavicle 5.36719e-014 -2.38542e-014
rhumerus 17.5433 16.3122 -82.1619
rradius 132.173
rwrist 22.2232
rhand 27.8286 -10.3336
rfingers 7.12502
rthumb 51.7446 -30.5898
lclavicle 5.36719e-014 -2.38542e-014
lhumerus 24.0357 -21.7329 81.8417
lradius 130.071
lwrist -16.0755
lhand 23.7311 42.9986
lfingers 7.12502
lthumb 47.9937 65.2144
rfemur -32.0603 7.54643 9.40693
rtibia 50.2205
rfoot -19.1318 -7.81887
rtoes -20.3029
lfemur -23.3634 21.2202 -29.0066
ltibia 48.6783
lfoot -31.7216 15.3026
ltoes -5.63566
2501
root 1.37765 16.9703 -0.816269 -0.0882064 -25.738 4.87817
lowerback 16.2095 1.38549 -4.50859
upperback 12.0578 1.05814 -0.0567527
thorax 3.74167 0.158585 2.33286
lowerneck 8.40196 -1.73678 -7.05099
upperneck 0.71288 -2.94995 1.50005
head -1.08196 -1.50593 1.78512
rclavicle -9.93923e-016 -2.46493e-014
rhumerus 17.5446 16.1514 -82.1703
rradius 132.204
rwrist 22.3597
rhand 27.7575 -10.2756
rfingers 7.12502
rthumb 51.68 -30.5694
lclavicle -9.93923e-016 -2.46493e-014
lhumerus 24.0641 -21.8416 81.7794
lradius 130.056
lwrist -16.0707
lhand 23.7884 43.0865
lfingers 7.12502
lthumb 48.0465 65.2776
rfemur -31.9678 7.46205 9.52919
rtibia 50.1896
rfoot -19.2206 -7.91369
rtoes -20.4384
lfemur -23.3406 21.0629 -28.8705
ltibia 48.6706
lfoot -31.6309 15.2387
ltoes -5.7301
2502
root 1.36903 16.9732 -0.820156 -0.0345437 -25.4883 4.83708
lowerback 16.2128 1.37805 -4.46997
upperback 12.0387 1.0554 -0.0892011
thorax 3.71949 0.16293 2.27716
lowerneck 8.43918 -1.80068 -6.87714
upperneck 0.722615 -3.02106 1.46473
head -1.08418 -1.54064 1.74528
rclavicle 3.77691e-015 7.55382e-015
rhumerus 17.5018 15.9204 -82.199
rradius 132.182
rwrist 22.5275
rhand 27.7431 -10.1889
rfingers 7.12502
rthumb 51.6669 -30.4903
lclavicle 3.77691e-015 7.55382e-015
lhumerus 24.0691 -21.9619 81.7405
lradius 130.008
lwrist -16.0233
lhand 23.8218 43.1836
lfingers 7.12502
lthumb 48.0773 65.3603
rfemur -31.8884 7.33829 9.59455
rtibia 50.1515
rfoot -19.4528 -7.88008
rtoes -19.7218
lfemur -23.3594 20.8283 -28.8016
ltibia 48.6621
lfoot -31.4761 15.2462
ltoes -5.98433
